<svg id="visual" viewBox="0 0 900 600" width="900" height="600" xmlns="http://www.w3.org/2000/svg" xmlns:xlink="http://www.w3.org/1999/xlink" version="1.1"><rect x="0" y="0" width="900" height="600" fill="#001220"></rect><path d="M0 363L21.5 368.2C43 373.3 86 383.7 128.8 397.8C171.7 412 214.3 430 257.2 424.5C300 419 343 390 385.8 385.5C428.7 381 471.3 401 514.2 403.3C557 405.7 600 390.3 642.8 379.3C685.7 368.3 728.3 361.7 771.2 361.2C814 360.7 857 366.3 878.5 369.2L900 372L900 601L878.5 601C857 601 814 601 771.2 601C728.3 601 685.7 601 642.8 601C600 601 557 601 514.2 601C471.3 601 428.7 601 385.8 601C343 601 300 601 257.2 601C214.3 601 171.7 601 128.8 601C86 601 43 601 21.5 601L0 601Z" fill="#fa7268"></path><path d="M0 413L21.5 412.2C43 411.3 86 409.7 128.8 415.2C171.7 420.7 214.3 433.3 257.2 436.2C300 439 343 432 385.8 435.2C428.7 438.3 471.3 451.7 514.2 447.3C557 443 600 421 642.8 419.8C685.7 418.7 728.3 438.3 771.2 451C814 463.7 857 469.3 878.5 472.2L900 475L900 601L878.5 601C857 601 814 601 771.2 601C728.3 601 685.7 601 642.8 601C600 601 557 601 514.2 601C471.3 601 428.7 601 385.8 601C343 601 300 601 257.2 601C214.3 601 171.7 601 128.8 601C86 601 43 601 21.5 601L0 601Z" fill="#ff5b83"></path><path d="M0 445L21.5 444.2C43 443.3 86 441.7 128.8 444.5C171.7 447.3 214.3 454.7 257.2 458.2C300 461.7 343 461.3 385.8 458.5C428.7 455.7 471.3 450.3 514.2 456.7C557 463 600 481 642.8 489.2C685.7 497.3 728.3 495.7 771.2 487.3C814 479 857 464 878.5 456.5L900 449L900 601L878.5 601C857 601 814 601 771.2 601C728.3 601 685.7 601 642.8 601C600 601 557 601 514.2 601C471.3 601 428.7 601 385.8 601C343 601 300 601 257.2 601C214.3 601 171.7 601 128.8 601C86 601 43 601 21.5 601L0 601Z" fill="#f74ba6"></path><path d="M0 524L21.5 520.8C43 517.7 86 511.3 128.8 506C171.7 500.7 214.3 496.3 257.2 502.3C300 508.3 343 524.7 385.8 528.8C428.7 533 471.3 525 514.2 520.2C557 515.3 600 513.7 642.8 514.2C685.7 514.7 728.3 517.3 771.2 522.3C814 527.3 857 534.7 878.5 538.3L900 542L900 601L878.5 601C857 601 814 601 771.2 601C728.3 601 685.7 601 642.8 601C600 601 557 601 514.2 601C471.3 601 428.7 601 385.8 601C343 601 300 601 257.2 601C214.3 601 171.7 601 128.8 601C86 601 43 601 21.5 601L0 601Z" fill="#db4ece"></path><path d="M0 555L21.5 555C43 555 86 555 128.8 553.2C171.7 551.3 214.3 547.7 257.2 545.7C300 543.7 343 543.3 385.8 540.5C428.7 537.7 471.3 532.3 514.2 530.7C557 529 600 531 642.8 532.5C685.7 534 728.3 535 771.2 538.3C814 541.7 857 547.3 878.5 550.2L900 553L900 601L878.5 601C857 601 814 601 771.2 601C728.3 601 685.7 601 642.8 601C600 601 557 601 514.2 601C471.3 601 428.7 601 385.8 601C343 601 300 601 257.2 601C214.3 601 171.7 601 128.8 601C86 601 43 601 21.5 601L0 601Z" fill="#a35ff5"></path></svg>